  <svg xmlns="http://www.w3.org/2000/svg" width="53" height="14" role="img" focusable="false" viewBox="0 -705 2908.6 727" aria-hidden="true" style="vertical-align: -0.05ex;">
   <rect x="0" y="-705" width="2908.6" height="727" class="wemd-formula-bg" fill="#ffffff">
   </rect>
   <g stroke="currentColor" fill="currentColor" stroke-width="0" transform="scale(1,-1)">
    <g data-mml-node="math">
     <g data-mml-node="mn">
      <path data-c="31" d="M213 578L200 573Q186 568 160 563T102 556H83V602H102Q149 604 189 617T245 641T273 663Q275 666 285 666Q294 666 302 660V361L303 61Q310 54 315 52T339 48T401 46H427V0H416Q395 3 257 3Q121 3 100 0H88V46H114Q136 46 152 46T177 47T193 50T201 52T207 57T213 61V578Z">
      </path>
      <path data-c="32" d="M109 429Q82 429 66 447T50 491Q50 562 103 614T235 666Q326 666 387 610T449 465Q449 422 429 383T381 315T301 241Q265 210 201 149L142 93L218 92Q375 92 385 97Q392 99 409 186V189H449V186Q448 183 436 95T421 3V0H50V19V31Q50 38 56 46T86 81Q115 113 136 137Q145 147 170 174T204 211T233 244T261 278T284 308T305 340T320 369T333 401T340 431T343 464Q343 527 309 573T212 619Q179 619 154 602T119 569T109 550Q109 549 114 549Q132 549 151 535T170 489Q170 464 154 447T109 429Z" transform="translate(500,0)">
      </path>
      <path data-c="35" d="M164 157Q164 133 148 117T109 101H102Q148 22 224 22Q294 22 326 82Q345 115 345 210Q345 313 318 349Q292 382 260 382H254Q176 382 136 314Q132 307 129 306T114 304Q97 304 95 310Q93 314 93 485V614Q93 664 98 664Q100 666 102 666Q103 666 123 658T178 642T253 634Q324 634 389 662Q397 666 402 666Q410 666 410 648V635Q328 538 205 538Q174 538 149 544L139 546V374Q158 388 169 396T205 412T256 420Q337 420 393 355T449 201Q449 109 385 44T229 -22Q148 -22 99 32T50 154Q50 178 61 192T84 210T107 214Q132 214 148 197T164 157Z" transform="translate(1000,0)">
      </path>
     </g>
     <g data-mml-node="msup" transform="translate(1500,0)">
      <g data-mml-node="mtext">
       <path data-c="A0" d="">
       </path>
      </g>
      <g data-mml-node="mo" transform="translate(283,363) scale(0.707)">
       <path data-c="2218" d="M55 251Q55 328 112 386T249 444T386 388T444 249Q444 171 388 113T250 55Q170 55 113 112T55 251ZM245 403Q188 403 142 361T96 250Q96 183 141 140T250 96Q284 96 313 109T354 135T375 160Q403 197 403 250Q403 313 360 358T245 403Z">
       </path>
      </g>
     </g>
     <g data-mml-node="TeXAtom" data-mjx-texclass="ORD" transform="translate(2186.6,0)">
      <g data-mml-node="mi">
       <path data-c="43" d="M56 342Q56 428 89 500T174 615T283 681T391 705Q394 705 400 705T408 704Q499 704 569 636L582 624L612 663Q639 700 643 704Q644 704 647 704T653 705H657Q660 705 666 699V419L660 413H626Q620 419 619 430Q610 512 571 572T476 651Q457 658 426 658Q322 658 252 588Q173 509 173 342Q173 221 211 151Q232 111 263 84T328 45T384 29T428 24Q517 24 571 93T626 244Q626 251 632 257H660L666 251V236Q661 133 590 56T403 -21Q262 -21 159 83T56 342Z">
       </path>
      </g>
     </g>
    </g>
   </g>
  </svg>
